<svg xmlns="http://www.w3.org/2000/svg" version="1.1" xmlns:xlink="http://www.w3.org/1999/xlink" xmlns:svgjs="http://svgjs.dev/svgjs" width="2000" height="1500" viewBox="0 0 2000 1500"><rect width="2000" height="1500" fill="#ffffff"></rect><g transform="matrix(0.75,0,0,0.75,249.78667664670684,-0.21332335329350371)"><svg viewBox="0 0 334 334" data-background-color="#f8f8f8" preserveAspectRatio="xMidYMid meet" height="2000" width="2000" xmlns="http://www.w3.org/2000/svg" xmlns:xlink="http://www.w3.org/1999/xlink"><g id="tight-bounds" transform="matrix(1,0,0,1,0.04749999999998522,0.04750000000001364)"><svg viewBox="0 0 333.90454557049503 333.90454557049503" height="333.90454557049503" width="333.90454557049503"><g><svg></svg></g><g><svg viewBox="0 0 333.90454557049503 333.90454557049503" height="333.90454557049503" width="333.90454557049503"><g><path d="M0 166.952c0-92.205 74.747-166.952 166.952-166.952 92.205 0 166.952 74.747 166.953 166.952 0 92.205-74.747 166.952-166.953 166.953-92.205 0-166.952-74.747-166.952-166.953zM166.952 327.306c88.561 0 160.354-71.793 160.354-160.354 0-88.561-71.793-160.354-160.354-160.354-88.561 0-160.354 71.793-160.354 160.354 0 88.561 71.793 160.354 160.354 160.354z" data-fill-palette-color="tertiary" fill="#000000" stroke="transparent"></path><ellipse rx="160.27418187383762" ry="160.27418187383762" cx="166.95227278524752" cy="166.95227278524752" fill="#000000" stroke="transparent" stroke-width="0" fill-opacity="1" data-fill-palette-color="tertiary"></ellipse></g><g transform="matrix(1,0,0,1,66.95384477197737,71.17305217166896)"><svg viewBox="0 0 199.99685602654029 191.55844122715712" height="191.55844122715712" width="199.99685602654029"><g><svg viewBox="0 0 213.1584412271571 204.16470312146413" height="191.55844122715712" width="199.99685602654029"><g transform="matrix(1,0,0,1,0,126.1819772107327)"><svg viewBox="0 0 213.1584412271571 77.98272591073145" height="77.98272591073145" width="213.1584412271571"><g id="textblocktransform"><svg viewBox="0 0 213.1584412271571 77.98272591073145" height="77.98272591073145" width="213.1584412271571" id="textblock"><g><svg viewBox="0 0 213.1584412271571 77.98272591073145" height="77.98272591073145" width="213.1584412271571"><g transform="matrix(1,0,0,1,0,0)"><svg width="213.1584412271571" viewBox="0.9 -35.7 125.58999999999999 45.95" height="77.98272591073145" data-palette-color="#f8f8f8"><path d="M1.4-3.35L1.4-3.35Q1.4-8.75 4.6-14.05L4.6-14.05Q0.9-16.4 0.9-21L0.9-21Q0.9-26.55 5.8-30.85L5.8-30.85Q11.3-35.7 20-35.7L20-35.7Q24-35.7 28.6-34.55L28.6-34.55Q29.65-34.3 37.55-30.68 45.45-27.05 48.9-27.05L48.9-27.05Q51.2-27.05 52.35-28.35L52.35-28.35Q52.95-29 52.95-29.75 52.95-30.5 52.3-31.1L52.3-31.1Q51.95-31.6 51.95-31.75 51.95-31.9 52.23-31.9 52.5-31.9 53.18-31.03 53.85-30.15 53.85-28.98 53.85-27.8 52.28-26.73 50.7-25.65 48.3-25.65L48.3-25.65Q44.55-25.65 36.65-29.28 28.75-32.9 26.73-33.3 24.7-33.7 22.1-33.7L22.1-33.7Q11.75-33.7 5.8-27L5.8-27Q5.1-26.25 4.15-23.98 3.2-21.7 3.2-19.6L3.2-19.6Q3.2-16.7 5.25-15.1L5.25-15.1Q7.85-18.9 11.4-21.15 14.95-23.4 18.6-23.4L18.6-23.4Q23.1-23.4 23.1-19.9L23.1-19.9Q23.1-15.7 18.18-10.78 13.25-5.85 9.05-5.85L9.05-5.85Q6.35-5.85 6.35-8.15L6.35-8.15Q6.35-8.95 6.78-9.55 7.2-10.15 7.8-10L7.8-10 7.7-8.85Q7.7-8.1 10-8.1L10-8.1Q13.4-8.1 17.18-11.6 20.95-15.1 21.75-18.45L21.75-18.45Q21.95-19.2 21.95-19.8L21.95-19.8Q21.95-22.05 19.07-22.05 16.2-22.05 13.13-19.85 10.05-17.65 7.35-14.05L7.35-14.05Q7.55-13.95 8.9-13.65L8.9-13.65 11.9-13.55Q14.1-13.45 14.1-13.05L14.1-13.05Q14.1-12.35 12-12.35L12-12.35Q11.85-12.35 11.7-12.35L11.7-12.35Q8.65-12.35 6.7-13.1L6.7-13.1Q2.85-7.2 2.85-2.25L2.85-2.25Q2.85 4.15 7.8 4.15L7.8 4.15Q13.4 4.15 19.45-3.65L19.45-3.65 29.25-18.25Q34.75-26.25 38.8-26.45L38.8-26.45 40.7-26Q41.6-25.5 41.6-24.5 41.6-23.5 41.1-23.5L41.1-23.5 39.5-23.75Q36.05-23.75 30.65-16.3L30.65-16.3 20.7-2.4Q14.3 5.05 8.45 5.05L8.45 5.05Q4.45 5.05 2.93 2.9 1.4 0.75 1.4-3.35ZM43.25 0.25L43.25 0.25Q39.5 0.25 39.5-3.9L39.5-3.9Q39.5-6 40.6-8.5 41.7-11 43-12.7L43-12.7Q42.75-12.65 42.35-12.65L42.35-12.65Q41.15-12.65 40.35-14.35L40.35-14.35 36.65-9.55Q33.55-5.7 33.05-5.7L33.05-5.7Q32.8-5.7 32.8-5.9L32.8-5.9Q32.8-6.4 33.65-7.35L33.65-7.35Q38-12.4 39.8-15.9L39.8-15.9Q40.95-20.25 42.7-20.25L42.7-20.25Q43.85-20.25 43.85-19.25 43.85-18.25 42.6-16.7L42.6-16.7 41.4-15.1Q41.4-14.05 42.95-14.05L42.95-14.05Q43.85-14.05 44.95-14.7L44.95-14.7 46.25-15.5Q46.35-15.55 46.75-15.55 47.15-15.55 47.6-15.05 48.05-14.55 47.9-14.15L47.9-14.15 44.45-9.8Q41.25-5.7 41.25-3.33 41.25-0.95 43.45-0.95L43.45-0.95Q45.75-0.95 49.1-3.4L49.1-3.4Q51.1-4.85 52.75-6.65L52.75-6.65Q54.3-8.45 54.45-8.45L54.45-8.45Q54.8-8.45 54.8-8.08 54.8-7.7 54.35-7.2L54.35-7.2 52.75-5.4Q51.4-4 49.75-2.7L49.75-2.7Q45.8 0.25 43.25 0.25ZM63.6-20.4Q64.35-20.4 65.02-19.93 65.7-19.45 65.7-18.8 65.7-18.15 65.07-17.68 64.45-17.2 63.7-17.2 62.95-17.2 62.32-17.75 61.7-18.3 61.7-19L61.7-19Q61.7-20.4 63.6-20.4L63.6-20.4ZM54.55 0.55L54.55 0.55Q52 0.55 52-2.75L52-2.75Q52-5.45 54.95-10.23 57.9-15 59.7-15.05L59.7-15.05Q60.2-15.05 60.82-14.65 61.45-14.25 61.45-13.85L61.45-13.85Q61.2-13.5 60.85-13.08 60.5-12.65 60.1-12.15 59.7-11.65 59-10.73 58.3-9.8 57.65-8.95L57.65-8.95Q53.9-4.1 53.9-2.27 53.9-0.45 55.15-0.45L55.15-0.45Q56.2-0.45 58-1.6L58-1.6Q62.2-4.2 64.65-7.3L64.65-7.3Q65.55-8.45 65.87-8.45 66.2-8.45 66.2-8.05 66.2-7.65 65.05-6.45 63.9-5.25 63.22-4.55 62.55-3.85 62.3-3.63 62.05-3.4 61.37-2.78 60.7-2.15 60.35-1.9 60-1.65 59.35-1.15 58.7-0.65 58.2-0.43 57.7-0.2 57.05 0.1L57.05 0.1Q56 0.55 54.55 0.55ZM82.89-11.3L82.89-11.3Q82.89-7.25 78.27-3.63 73.64 0 70.24 0L70.24 0Q67.99 0 66.97-0.3 65.94-0.6 64.69-2.1L64.69-2.1Q63.84-1.4 62.39 1.48 60.94 4.35 60.94 6.4L60.94 6.4Q60.94 7.35 61.89 8.9L61.89 8.9Q61.99 9.15 61.74 9.33 61.49 9.5 61.37 9.5 61.24 9.5 61.14 9.45L61.14 9.45Q59.04 8.3 59.04 4.98 59.04 1.65 64.57-6.53 70.09-14.7 72.19-15.4L72.19-15.4Q72.69-15.5 72.84-15.5L72.84-15.5Q73.69-15.5 73.69-13.65L73.69-13.65Q74.19-14.15 75.74-14.6L75.74-14.6Q77.64-15.1 78.44-15.1L78.44-15.1Q80.24-15.1 81.57-14.08 82.89-13.05 82.89-11.3ZM80.34-11.8L80.34-11.8Q80.34-13.7 78.09-13.7 75.84-13.7 73.99-12.75L73.99-12.75Q73.14-12.35 69.29-8.35 65.44-4.35 65.44-3.2L65.44-3.2Q65.44-2.3 66.82-1.85 68.19-1.4 69.59-1.4L69.59-1.4Q72.34-1.4 76.34-4.53 80.34-7.65 80.34-11.8ZM93.74-20.4Q94.49-20.4 95.17-19.93 95.84-19.45 95.84-18.8 95.84-18.15 95.22-17.68 94.59-17.2 93.84-17.2 93.09-17.2 92.47-17.75 91.84-18.3 91.84-19L91.84-19Q91.84-20.4 93.74-20.4L93.74-20.4ZM84.69 0.55L84.69 0.55Q82.14 0.55 82.14-2.75L82.14-2.75Q82.14-5.45 85.09-10.23 88.04-15 89.84-15.05L89.84-15.05Q90.34-15.05 90.97-14.65 91.59-14.25 91.59-13.85L91.59-13.85Q91.34-13.5 90.99-13.08 90.64-12.65 90.24-12.15 89.84-11.65 89.14-10.73 88.44-9.8 87.79-8.95L87.79-8.95Q84.04-4.1 84.04-2.27 84.04-0.45 85.29-0.45L85.29-0.45Q86.34-0.45 88.14-1.6L88.14-1.6Q92.34-4.2 94.79-7.3L94.79-7.3Q95.69-8.45 96.02-8.45 96.34-8.45 96.34-8.05 96.34-7.65 95.19-6.45 94.04-5.25 93.37-4.55 92.69-3.85 92.44-3.63 92.19-3.4 91.52-2.78 90.84-2.15 90.49-1.9 90.14-1.65 89.49-1.15 88.84-0.65 88.34-0.43 87.84-0.2 87.19 0.1L87.19 0.1Q86.14 0.55 84.69 0.55ZM114.59-24.45L114.59-24.45Q114.59-22.9 113.69-22.9L113.69-22.9Q113.44-22.9 113.19-23.3L113.19-23.3Q112.74-24.1 111.69-24.1L111.69-24.1Q109.39-24.1 107.39-20.8L107.39-20.8Q106.99-20.15 104.89-16.1L104.89-16.1 105.49-16.1Q110.94-16.1 112.74-16.25L112.74-16.25Q112.94-16.2 112.94-16.05L112.94-16.05Q112.94-15.65 109.39-14.95L109.39-14.95Q106.04-14.4 103.89-14L103.89-14Q102.34-10.8 100.14-6.4L100.14-6.4Q95.64 2 94.19 4.05L94.19 4.05Q89.84 10.25 85.69 10.25L85.69 10.25Q84.24 10.25 83.16 9.03 82.09 7.8 82.04 6.3L82.04 6.3Q82.19 5.7 82.49 5.7L82.49 5.7Q82.64 5.7 82.69 6.05L82.69 6.05Q82.99 7.35 83.69 8.05 84.39 8.75 85.14 8.75L85.14 8.75Q89.39 8.75 92.89 3.5L92.89 3.5Q94.89 0.5 98.34-7.3L98.34-7.3 101.04-13.8Q96.04-13.85 96.04-15L96.04-15Q96.04-15.5 96.51-15.85 96.99-16.2 97.34-16.2L97.34-16.2 102.04-16.1Q106.94-27 111.04-27L111.04-27Q112.59-27 114.19-25.5L114.19-25.5Q114.59-25.1 114.59-24.45ZM103.49 5.8L103.49 5.8Q105.89 8.8 107.64 8.8L107.64 8.8Q110.49 8.8 113.79 4.25L113.79 4.25Q116.19 0.9 118.49-4.2L118.49-4.2 120.39-8.8 113.04-3.05Q109.64-0.4 107.59-0.4L107.59-0.4Q106.49-0.4 105.84-1.15 105.19-1.9 105.19-2.85L105.19-2.85Q105.19-5 108.89-9.93 112.59-14.85 114.29-14.85 115.99-14.85 115.99-13.7L115.99-13.7Q115.99-13.25 111.56-8.53 107.14-3.8 107.14-2.15L107.14-2.15Q107.14-1.5 107.99-1.5L107.99-1.5Q109.59-1.5 114.41-5.25 119.24-9 121.69-11.45L121.69-11.45Q122.24-12.1 123.24-13.4L123.24-13.4Q124.19-14.5 125.34-14.5 126.49-14.5 126.49-13.4L126.49-13.4Q126.49-13.2 124.24-9.85 121.99-6.5 121.89-6.3L121.89-6.3Q120.34-3.3 117.14 2.45L117.14 2.45Q112.29 10.25 107.44 10.25L107.44 10.25Q105.84 10.25 104.64 8.88 103.44 7.5 103.49 5.8Z" opacity="1" transform="matrix(1,0,0,1,0,0)" fill="#ffffff" class="wordmark-text-0" data-fill-palette-color="quaternary" id="text-0"></path></svg></g></svg></g></svg></g></svg></g><g transform="matrix(1,0,0,1,52.05819962416751,0)"><svg viewBox="0 0 109.0420419788221 107.77212720863086" height="107.77212720863086" width="109.0420419788221"><g><svg xmlns="http://www.w3.org/2000/svg" data-name="outline cut copy" viewBox="1.293 2 60.707 60.00000007084449" x="0" y="0" height="107.77212720863086" width="109.0420419788221" class="icon-icon-0" data-fill-palette-color="quaternary" id="icon-0"><path d="M31.156 16.463L25 26.137V26H20A1 1 0 0 0 19.231 26.36L17.865 28H16.414L17.707 26.707 16.293 25.293 15 26.586V24.414L17.707 21.707 16.293 20.293 15 21.586V19H13V21.586L11.707 20.293 10.293 21.707 13 24.414V26.586L11.707 25.293 10.293 26.707 12.512 28.926 6.034 34.226 7.3 35.774 14.357 30H16.2L14.233 32.36 15.771 33.64 20.471 28H25L25.844 28.537 32.549 18H36.42L40.132 24.5A1 1 0 0 0 41 25H44.382L48.105 32.447A1 1 0 0 0 48.257 32.669L53.106 38.057 54.593 36.719 49.834 31.432 45.9 23.553A1 1 0 0 0 45 23H41.58L37.868 16.5A1 1 0 0 0 37 16H32A1 1 0 0 0 31.156 16.463" fill="#ffffff" data-fill-palette-color="quaternary"></path><path d="M35.634 44.368L36.626 42.63A42.9 42.9 0 0 0 15.4 37H2V39H15.4A40.9 40.9 0 0 1 35.634 44.368" fill="#ffffff" data-fill-palette-color="quaternary"></path><path d="M32.474 49.88A57.76 57.76 0 0 1 59.765 43H62V41H60.414L61.707 39.707 60.293 38.293 59 39.586V37.414L61.707 34.707 60.293 33.293 59 34.586V32H57V34.586L55.707 33.293 54.293 34.707 57 37.414V39.586L55.707 38.293 54.293 39.707 55.729 41.143A59.8 59.8 0 0 0 31.529 48.12Z" fill="#ffffff" data-fill-palette-color="quaternary"></path><path d="M24.746 50.349A1 1 0 0 0 24.433 50.111 1 1 0 0 0 24.333 50.059L16.356 47.066A1.01 1.01 0 0 0 15.223 47.378L7.223 57.378A1 1 0 0 0 7.652 58.94L15.652 61.94C15.663 61.94 15.674 61.94 15.685 61.945A1 1 0 0 0 16 62H32A1 1 0 0 0 32.781 60.375L24.781 50.375C24.772 50.364 24.756 50.36 24.746 50.349M25 55V53.851L29.912 59.991A5 5 0 0 1 25 55M18.088 59.991L23 53.851V55A5 5 0 0 1 18.088 59.991M16.328 49.191L22.358 51.452 15.672 59.809 9.643 57.548ZM22.893 60A7 7 0 0 0 24 58.6 7 7 0 0 0 25.107 60Z" fill="#ffffff" data-fill-palette-color="quaternary"></path><path d="M37 62H45V60H43.264A4.15 4.15 0 0 0 43.014 55.167L42.548 54.584A2.16 2.16 0 0 1 42.707 51.707L41.293 50.293A4.15 4.15 0 0 0 40.228 54.358L39.528 55.058A4.11 4.11 0 0 0 38.841 60H37ZM40.941 56.473L41.25 56.164 41.45 56.416A2.16 2.16 0 0 1 41.291 59.293L41 59.586 40.941 59.527A2.16 2.16 0 0 1 40.941 56.473" fill="#ffffff" data-fill-palette-color="quaternary"></path><path d="M28 12A5 5 0 1 0 23 7 5.006 5.006 0 0 0 28 12M28 4A3 3 0 1 1 25 7 3 3 0 0 1 28 4" fill="#ffffff" data-fill-palette-color="quaternary"></path><path d="M42 16A4 4 0 0 0 44.8 14.84 4.964 4.964 0 0 0 51.733 14.296 3.992 3.992 0 0 0 58.969 12.468 3.5 3.5 0 0 0 58.5 5.5 3.5 3.5 0 0 0 57.575 5.626 4.485 4.485 0 0 0 49.865 4.849 4.988 4.988 0 0 0 41 8V8.126A4 4 0 0 0 42 16M41.942 10C41.972 10 42.067 10.014 42.098 10.016A1 1 0 0 0 43.113 8.761 3 3 0 0 1 43 8 2.989 2.989 0 0 1 48.959 7.646 1.12 1.12 0 0 0 49.502 8.422 1 1 0 0 0 51.002 7.558 1 1 0 0 0 50.996 7.458 2.491 2.491 0 0 1 55.958 7.179 1 1 0 0 0 57.571 7.835 1.5 1.5 0 1 1 58.5 10.5 1.6 1.6 0 0 1 58.164 10.458 1 1 0 0 0 56.964 11.625 2 2 0 0 1 57 12 1.993 1.993 0 0 1 53.122 12.653 1.09 1.09 0 0 0 52.1 12H52A1 1 0 0 1 51.743 11.958 1 1 0 0 0 50.611 12.44 2.978 2.978 0 0 1 45.532 12.7 0.98 0.98 0 0 0 44.632 12.272 1 1 0 0 0 43.81 12.843 1.98 1.98 0 0 1 42 14 2 2 0 0 1 41.942 10" fill="#ffffff" data-fill-palette-color="quaternary"></path><path d="M6.5 16A3.45 3.45 0 0 0 8.537 15.336 5 5 0 0 0 13.654 15.227 3.96 3.96 0 0 0 16 16 4 4 0 0 0 16 8 3.8 3.8 0 0 0 15.072 8.114 4.984 4.984 0 0 0 6.425 9 3.5 3.5 0 0 0 6.5 16M6.5 11A1.5 1.5 0 0 1 6.869 11.055 1 1 0 0 0 8.089 10.314 2.987 2.987 0 0 1 13.722 9.759 1 1 0 0 0 15.09 10.233 2 2 0 1 1 14.479 13.278 1 1 0 0 0 13.779 12.924H13.718A1 1 0 0 0 13.037 13.192 2.943 2.943 0 0 1 9.089 13.292 1 1 0 0 0 7.667 13.434 1.5 1.5 0 1 1 6.5 11" fill="#ffffff" data-fill-palette-color="quaternary"></path><path d="M43 28H39A1 1 0 0 0 38.2 28.4L35.5 32H33A1 1 0 0 0 32.2 32.4L29.2 36.4 30.8 37.6 33.5 34H36A1 1 0 0 0 36.8 33.6L39.5 30H43Z" fill="#ffffff" data-fill-palette-color="quaternary"></path><path d="M2.707 46.293L1.293 47.707 4.293 50.707A1 1 0 0 0 5.707 50.707L8.707 47.707 7.293 46.293 6 47.586V45.414L8.707 42.707 7.293 41.293 6 42.586V40H4V42.586L2.707 41.293 1.293 42.707 4 45.414V47.586Z" fill="#ffffff" data-fill-palette-color="quaternary"></path></svg></g></svg></g><g></g></svg></g></svg></g></svg></g><defs></defs></svg><rect width="333.90454557049503" height="333.90454557049503" fill="none" stroke="none" visibility="hidden"></rect></g></svg></g></svg>